STARTFONT 2.1
COMMENT This is vga11x19 font, adapted from -B&H-LucidaTypewriter-
COMMENT Medium-R-Normal-Sans-18-180-75-75-M-110-ISO8859-1 and dosemu vga 
COMMENT fonts by Pasi Eronen.
FONT -dosemu-VGA-Medium-R-Normal--19-190-75-75-C-100-IBM-CP437
SIZE 18 75 75
FONTBOUNDINGBOX 11 19 0 -3
STARTPROPERTIES 4
COPYRIGHT "Copyright Bigelow & Holmes 1986, 1985."
DEFAULT_CHAR 0
FONT_ASCENT 16
FONT_DESCENT 3
ENDPROPERTIES
CHARS 256
STARTCHAR space0
ENCODING 0
SWIDTH 586 0
DWIDTH 11 0
BBX 0 0 0 0
BITMAP
ENDCHAR
STARTCHAR vga1
ENCODING 1
SWIDTH 586 0
DWIDTH 11 0
BBX 8 16 2 -2
BITMAP
00
00
7e
81
a5
81
81
a5
99
81
81
7e
00
00
00
00
ENDCHAR
STARTCHAR vga2
ENCODING 2
SWIDTH 586 0
DWIDTH 11 0
BBX 8 16 2 -2
BITMAP
00
00
7e
ff
db
ff
ff
db
e7
ff
ff
7e
00
00
00
00
ENDCHAR
STARTCHAR vga3
ENCODING 3
SWIDTH 586 0
DWIDTH 11 0
BBX 8 16 2 -2
BITMAP
00
00
00
00
6c
fe
fe
fe
fe
7c
38
10
00
00
00
00
ENDCHAR
STARTCHAR vga4
ENCODING 4
SWIDTH 586 0
DWIDTH 11 0
BBX 8 16 2 -2
BITMAP
00
00
00
00
10
38
7c
fe
7c
38
10
00
00
00
00
00
ENDCHAR
STARTCHAR vga5
ENCODING 5
SWIDTH 586 0
DWIDTH 11 0
BBX 8 16 2 -2
BITMAP
00
00
00
18
3c
3c
e7
e7
e7
18
18
3c
00
00
00
00
ENDCHAR
STARTCHAR vga6
ENCODING 6
SWIDTH 586 0
DWIDTH 11 0
BBX 8 16 2 -2
BITMAP
00
00
00
18
3c
7e
ff
ff
7e
18
18
3c
00
00
00
00
ENDCHAR
STARTCHAR vga7
ENCODING 7
SWIDTH 586 0
DWIDTH 11 0
BBX 8 16 2 -2
BITMAP
00
00
00
00
00
00
18
3c
3c
18
00
00
00
00
00
00
ENDCHAR
STARTCHAR vga8
ENCODING 8
SWIDTH 586 0
DWIDTH 11 0
BBX 8 16 2 -2
BITMAP
ff
ff
ff
ff
ff
ff
e7
c3
c3
e7
ff
ff
ff
ff
ff
ff
ENDCHAR
STARTCHAR vga9
ENCODING 9
SWIDTH 586 0
DWIDTH 11 0
BBX 8 16 2 -2
BITMAP
00
00
00
00
00
3c
66
42
42
66
3c
00
00
00
00
00
ENDCHAR
STARTCHAR vga10
ENCODING 10
SWIDTH 586 0
DWIDTH 11 0
BBX 8 16 2 -2
BITMAP
ff
ff
ff
ff
ff
c3
99
bd
bd
99
c3
ff
ff
ff
ff
ff
ENDCHAR
STARTCHAR vga11
ENCODING 11
SWIDTH 586 0
DWIDTH 11 0
BBX 8 16 2 -2
BITMAP
00
00
1e
06
0e
1a
78
cc
cc
cc
cc
78
00
00
00
00
ENDCHAR
STARTCHAR vga12
ENCODING 12
SWIDTH 586 0
DWIDTH 11 0
BBX 8 16 2 -2
BITMAP
00
00
3c
66
66
66
66
3c
18
7e
18
18
00
00
00
00
ENDCHAR
STARTCHAR vga13
ENCODING 13
SWIDTH 586 0
DWIDTH 11 0
BBX 8 16 2 -2
BITMAP
00
00
3f
33
3f
30
30
30
30
70
f0
e0
00
00
00
00
ENDCHAR
STARTCHAR vga14
ENCODING 14
SWIDTH 586 0
DWIDTH 11 0
BBX 8 16 2 -2
BITMAP
00
00
7f
63
7f
63
63
63
63
67
e7
e6
c0
00
00
00
ENDCHAR
STARTCHAR vga15
ENCODING 15
SWIDTH 586 0
DWIDTH 11 0
BBX 8 16 2 -2
BITMAP
00
00
00
18
18
db
3c
e7
3c
db
18
18
00
00
00
00
ENDCHAR
STARTCHAR righttriangle
ENCODING 16
SWIDTH 586 0
DWIDTH 11 0
BBX 11 19 0 -3
BITMAP
0000
0000
0000
0000
2000
3000
3800
3c00
3e00
3f00
3e00
3c00
3800
3000
2000
0000
0000
0000
0000
ENDCHAR
STARTCHAR lefttriangle
ENCODING 17
SWIDTH 586 0
DWIDTH 11 0
BBX 11 19 0 -3
BITMAP
0000
0000
0000
0000
0080
0180
0380
0780
0f80
1f80
0f80
0780
0380
0180
0080
0000
0000
0000
0000
ENDCHAR
STARTCHAR updownarrow
ENCODING 18
SWIDTH 586 0
DWIDTH 11 0
BBX 11 19 0 -3
BITMAP
0000
0000
0000
0400
0e00      
1500      
2480
0400
0400
0400
0400
0400
2480
1500
0e00
0400
0000
0000
0000
ENDCHAR
STARTCHAR vga19
ENCODING 19
SWIDTH 586 0
DWIDTH 11 0
BBX 8 16 2 -2 
BITMAP
00
00
66
66
66
66
66
66
66
00
66
66
00
00
00
00
ENDCHAR
STARTCHAR paragraph
ENCODING 20
SWIDTH 586 0
DWIDTH 11 0
BBX 8 15 1 -2
BITMAP
7f
f9
f9
f9
79
39
09
09
09
09
09
09
09
09
09
ENDCHAR
STARTCHAR section
ENCODING 21
SWIDTH 586 0
DWIDTH 11 0
BBX 8 15 2 -2
BITMAP
7e
e3
c0
e0
78
5e
c7
c3
e3
7a
1e
07
03
c7
7e
ENDCHAR
STARTCHAR vga22
ENCODING 22
SWIDTH 586 0
DWIDTH 11 0
BBX 8 16 2 -2
BITMAP
00
00
00
00
00
00
00
00
fe
fe
fe
fe
00
00
00
00
ENDCHAR
STARTCHAR vga23
ENCODING 23
SWIDTH 586 0
DWIDTH 11 0
BBX 8 16 2 -2
BITMAP
00
00
18
3c
7e
18
18
18
7e
3c
18
7e
00
00
00
00
ENDCHAR
STARTCHAR uparrow
ENCODING 24
SWIDTH 586 0
DWIDTH 11 0
BBX 11 19 0 -3
BITMAP
0000
0000
0000
0400
0e00
1500      
2480
0400
0400
0400
0400
0400
0400
0400
0400
0400
0000
0000
0000
ENDCHAR
STARTCHAR downarrow
ENCODING 25
SWIDTH 586 0
DWIDTH 11 0
BBX 11 19 0 -3
BITMAP
0000
0000
0000
0400
0400
0400
0400
0400
0400
0400
0400
0400
2480
1500
0e00
0400
0000
0000
0000
ENDCHAR
STARTCHAR vga26
ENCODING 26
SWIDTH 586 0
DWIDTH 11 0
BBX 8 16 2 -2 
BITMAP
00
00
00
00
00
18
0c
fe
0c
18
00
00
00
00
00
00
ENDCHAR
STARTCHAR vga27
ENCODING 27
SWIDTH 586 0
DWIDTH 11 0
BBX 8 16 2 -2
BITMAP
00
00
00
00
00
30
60
fe
60
30
00
00
00
00
00
00
ENDCHAR
STARTCHAR vga28
ENCODING 28
SWIDTH 586 0
DWIDTH 11 0
BBX 8 16 2 -2
BITMAP
00
00
00
00
00
00
c0
c0
c0
fe
00
00
00
00
00
00
ENDCHAR
STARTCHAR vga29
ENCODING 29
SWIDTH 586 0
DWIDTH 11 0
BBX 8 16 2 -2
BITMAP
00
00
00
00
00
28
6c
fe
6c
28
00
00
00
00
00
00
ENDCHAR
STARTCHAR vga30
ENCODING 30
SWIDTH 586 0
DWIDTH 11 0
BBX 8 16 2 -2
BITMAP
00
00
00
00
10
38
38
7c
7c
fe
fe
00
00
00
00
00
ENDCHAR
STARTCHAR vga31
ENCODING 31
SWIDTH 586 0
DWIDTH 11 0
BBX 8 16 2 -2
BITMAP
00
00
00
00
fe
fe
7c
7c
38
38
10
00
00
00
00
00
ENDCHAR
STARTCHAR space
ENCODING 32
SWIDTH 586 0
DWIDTH 11 0
BBX 0 0 0 0
BITMAP
ENDCHAR
STARTCHAR exclam
ENCODING 33
SWIDTH 586 0
DWIDTH 11 0
BBX 2 13 5 0
BITMAP
c0
c0
c0
c0
c0
c0
c0
c0
40
00
00
c0
c0
ENDCHAR
STARTCHAR quotedbl
ENCODING 34
SWIDTH 586 0
DWIDTH 11 0
BBX 6 4 3 10
BITMAP
cc
cc
cc
88
ENDCHAR
STARTCHAR numbersign
ENCODING 35
SWIDTH 586 0
DWIDTH 11 0
BBX 11 13 0 0
BITMAP
0cc0
0cc0
0cc0
0880
7fe0
1100
3300
3300
ffc0
2200
6600
6600
6600
ENDCHAR
STARTCHAR dollar
ENCODING 36
SWIDTH 586 0
DWIDTH 11 0
BBX 8 15 2 -1
BITMAP
08
3e
4b
c8
c8
e8
78
3c
1e
17
13
13
d2
7c
10
ENDCHAR
STARTCHAR percent
ENCODING 37
SWIDTH 586 0
DWIDTH 11 0
BBX 11 13 0 0
BITMAP
7000
d840
8840
8880
8900
da00
75c0
0b60
1220
2220
4220
4360
01c0
ENDCHAR
STARTCHAR ampersand
ENCODING 38
SWIDTH 586 0
DWIDTH 11 0
BBX 11 13 0 0
BITMAP
3c00
6600
6600
6600
3400
3800
6cc0
ccc0
c680
c300
c380
6ec0
3860
ENDCHAR
STARTCHAR apostrophe
ENCODING 39
SWIDTH 586 0
DWIDTH 11 0
BBX 3 5 4 9
BITMAP
e0
e0
e0
60
c0
ENDCHAR
STARTCHAR parenleft
ENCODING 40
SWIDTH 586 0
DWIDTH 11 0
BBX 7 16 3 -2
BITMAP
06
18
30
60
60
c0
c0
c0
c0
c0
c0
60
60
30
18
06
ENDCHAR
STARTCHAR parenright
ENCODING 41
SWIDTH 586 0
DWIDTH 11 0
BBX 7 16 1 -2
BITMAP
c0
30
18
0c
0c
06
06
06
06
06
06
0c
0c
18
30
c0
ENDCHAR
STARTCHAR asterisk
ENCODING 42
SWIDTH 586 0
DWIDTH 11 0
BBX 7 7 2 7
BITMAP
10
10
92
ee
10
6c
44
ENDCHAR
STARTCHAR plus
ENCODING 43
SWIDTH 586 0
DWIDTH 11 0
BBX 9 9 1 1
BITMAP
0800
0800
0800
0800
ff80
0800
0800
0800
0800
ENDCHAR
STARTCHAR comma
ENCODING 44
SWIDTH 586 0
DWIDTH 11 0
BBX 3 5 4 -2
BITMAP
e0
e0
e0
60
c0
ENDCHAR
STARTCHAR minus
ENCODING 45
SWIDTH 586 0
DWIDTH 11 0
BBX 9 1 1 5
BITMAP
ff80
ENDCHAR
STARTCHAR period
ENCODING 46
SWIDTH 586 0
DWIDTH 11 0
BBX 3 3 4 0
BITMAP
e0
e0
e0
ENDCHAR
STARTCHAR slash
ENCODING 47
SWIDTH 586 0
DWIDTH 11 0
BBX 9 16 1 -2
BITMAP
0080
0180
0100
0300
0200
0600
0400
0c00
1800
1000
3000
2000
6000
4000
c000
8000
ENDCHAR
STARTCHAR 0
ENCODING 48
SWIDTH 586 0
DWIDTH 11 0
BBX 9 13 1 0
BITMAP
3e00
6300
4100
c180
c180
c180
c180
c180
c180
c180
4100
6300
3e00
ENDCHAR
STARTCHAR 1
ENCODING 49
SWIDTH 586 0
DWIDTH 11 0
BBX 5 13 2 0
BITMAP
18
f8
18
18
18
18
18
18
18
18
18
18
18
ENDCHAR
STARTCHAR 2
ENCODING 50
SWIDTH 586 0
DWIDTH 11 0
BBX 8 13 1 0
BITMAP
7e
c7
03
03
03
06
0c
18
30
60
c0
ff
ff
ENDCHAR
STARTCHAR 3
ENCODING 51
SWIDTH 586 0
DWIDTH 11 0
BBX 8 13 1 0
BITMAP
7e
c7
03
03
06
3c
06
03
03
03
03
c7
7e
ENDCHAR
STARTCHAR 4
ENCODING 52
SWIDTH 586 0
DWIDTH 11 0
BBX 10 13 1 0
BITMAP
0300
0700
0f00
1b00
1300
3300
6300
c300
ffc0
ffc0
0300
0300
0300
ENDCHAR
STARTCHAR 5
ENCODING 53
SWIDTH 586 0
DWIDTH 11 0
BBX 8 13 2 0
BITMAP
ff
ff
80
80
80
f8
1e
07
03
03
03
c7
7e
ENDCHAR
STARTCHAR 6
ENCODING 54
SWIDTH 586 0
DWIDTH 11 0
BBX 9 13 1 0
BITMAP
1e00
7300
6000
c000
c000
de00
e300
c180
c180
c180
e180
7300
3e00
ENDCHAR
STARTCHAR 7
ENCODING 55
SWIDTH 586 0
DWIDTH 11 0
BBX 9 13 1 0
BITMAP
ff80
ff80
0300
0600
0c00
0c00
1800
1800
3000
3000
6000
6000
6000
ENDCHAR
STARTCHAR 8
ENCODING 56
SWIDTH 586 0
DWIDTH 11 0
BBX 9 13 1 0
BITMAP
3e00
6300
c180
c180
e100
7a00
3e00
6700
c380
c180
c180
6300
3e00
ENDCHAR
STARTCHAR 9
ENCODING 57
SWIDTH 586 0
DWIDTH 11 0
BBX 9 13 1 0
BITMAP
3e00
6700
c380
c180
c180
c180
6380
3d80
0180
0100
0300
c600
7c00
ENDCHAR
STARTCHAR colon
ENCODING 58
SWIDTH 586 0
DWIDTH 11 0
BBX 3 10 4 0
BITMAP
e0
e0
00
00
00
00
00
00
e0
e0
ENDCHAR
STARTCHAR semicolon
ENCODING 59
SWIDTH 586 0
DWIDTH 11 0
BBX 3 12 4 -2
BITMAP
e0
e0
00
00
00
00
00
00
e0
e0
60
c0
ENDCHAR
STARTCHAR less
ENCODING 60
SWIDTH 586 0
DWIDTH 11 0
BBX 10 9 0 1
BITMAP
00c0
0380
0e00
3800
e000
3800
0e00
0380
00c0
ENDCHAR
STARTCHAR equal
ENCODING 61
SWIDTH 586 0
DWIDTH 11 0
BBX 9 4 1 3
BITMAP
ff80
0000
0000
ff80
ENDCHAR
STARTCHAR greater
ENCODING 62
SWIDTH 586 0
DWIDTH 11 0
BBX 10 9 1 1
BITMAP
c000
7000
1c00
0700
01c0
0700
1c00
7000
c000
ENDCHAR
STARTCHAR question
ENCODING 63
SWIDTH 586 0
DWIDTH 11 0
BBX 8 13 1 0
BITMAP
7e
c7
03
03
06
18
30
30
30
00
00
30
30
ENDCHAR
STARTCHAR at
ENCODING 64
SWIDTH 586 0
DWIDTH 11 0
BBX 10 13 1 0
BITMAP
0f00
3180
6180
4f80
9980
9980
9980
9980
9f80
4dc0
6000
3000
0f80
ENDCHAR
STARTCHAR A
ENCODING 65
SWIDTH 586 0
DWIDTH 11 0
BBX 10 13 1 0
BITMAP
0c00
0c00
1e00
1600
1300
3300
2300
2180
7f80
4180
c0c0
c0c0
c0c0
ENDCHAR
STARTCHAR B
ENCODING 66
SWIDTH 586 0
DWIDTH 11 0
BBX 8 13 2 0
BITMAP
fe
c7
c3
c3
c3
c6
fc
c6
c3
c3
c3
c7
fe
ENDCHAR
STARTCHAR C
ENCODING 67
SWIDTH 586 0
DWIDTH 11 0
BBX 9 13 1 0
BITMAP
1f00
3180
6000
6000
c000
c000
c000
c000
c000
6000
6000
3180
1f00
ENDCHAR
STARTCHAR D
ENCODING 68
SWIDTH 586 0
DWIDTH 11 0
BBX 9 13 1 0
BITMAP
fc00
c700
c300
c180
c180
c180
c180
c180
c180
c300
c300
ce00
f800
ENDCHAR
STARTCHAR E
ENCODING 69
SWIDTH 586 0
DWIDTH 11 0
BBX 8 13 2 0
BITMAP
ff
c0
c0
c0
c0
c0
fe
c0
c0
c0
c0
c0
ff
ENDCHAR
STARTCHAR F
ENCODING 70
SWIDTH 586 0
DWIDTH 11 0
BBX 8 13 2 0
BITMAP
ff
c0
c0
c0
c0
c0
fe
c0
c0
c0
c0
c0
c0
ENDCHAR
STARTCHAR G
ENCODING 71
SWIDTH 586 0
DWIDTH 11 0
BBX 9 13 1 0
BITMAP
1f00
3180
6000
6000
c000
c000
c000
c180
c180
6180
6180
3180
1f80
ENDCHAR
STARTCHAR H
ENCODING 72
SWIDTH 586 0
DWIDTH 11 0
BBX 9 13 1 0
BITMAP
c180
c180
c180
c180
c180
c180
ff80
c180
c180
c180
c180
c180
c180
ENDCHAR
STARTCHAR I
ENCODING 73
SWIDTH 586 0
DWIDTH 11 0
BBX 8 13 2 0
BITMAP
ff
18
18
18
18
18
18
18
18
18
18
18
ff
ENDCHAR
STARTCHAR J
ENCODING 74
SWIDTH 586 0
DWIDTH 11 0
BBX 7 13 2 0
BITMAP
7e
06
06
06
06
06
06
06
06
06
86
8c
f0
ENDCHAR
STARTCHAR K
ENCODING 75
SWIDTH 586 0
DWIDTH 11 0
BBX 10 13 1 0
BITMAP
c180
c300
c600
cc00
d800
f000
f000
d800
cc00
c600
c300
c180
c0c0
ENDCHAR
STARTCHAR L
ENCODING 76
SWIDTH 586 0
DWIDTH 11 0
BBX 8 13 2 0
BITMAP
c0
c0
c0
c0
c0
c0
c0
c0
c0
c0
c0
c0
ff
ENDCHAR
STARTCHAR M
ENCODING 77
SWIDTH 586 0
DWIDTH 11 0
BBX 10 13 1 0
BITMAP
e0c0
e1c0
e1c0
e1c0
b2c0
b2c0
b2c0
b2c0
9cc0
9cc0
88c0
88c0
80c0
ENDCHAR
STARTCHAR N
ENCODING 78
SWIDTH 586 0
DWIDTH 11 0
BBX 9 13 1 0
BITMAP
c080
e080
e080
b080
9880
9880
8c80
8680
8680
8380
8380
8180
8080
ENDCHAR
STARTCHAR O
ENCODING 79
SWIDTH 586 0
DWIDTH 11 0
BBX 10 13 1 0
BITMAP
1e00
3300
6180
6180
c0c0
c0c0
c0c0
c0c0
c0c0
6180
6180
3300
1e00
ENDCHAR
STARTCHAR P
ENCODING 80
SWIDTH 586 0
DWIDTH 11 0
BBX 8 13 2 0
BITMAP
fe
c7
c3
c3
c3
c3
c6
f8
c0
c0
c0
c0
c0
ENDCHAR
STARTCHAR Q
ENCODING 81
SWIDTH 586 0
DWIDTH 11 0
BBX 10 16 1 -3
BITMAP
1e00
3300
6180
6180
c0c0
c0c0
c0c0
c0c0
c0c0
6180
6180
3300
1e00
0600
0380
01c0
ENDCHAR
STARTCHAR R
ENCODING 82
SWIDTH 586 0
DWIDTH 11 0
BBX 8 13 2 0
BITMAP
fc
ce
c6
c6
c6
cc
f0
d8
cc
cc
c6
c3
c3
ENDCHAR
STARTCHAR S
ENCODING 83
SWIDTH 586 0
DWIDTH 11 0
BBX 8 13 2 0
BITMAP
3e
63
c0
c0
e0
78
1e
07
03
03
03
c6
7c
ENDCHAR
STARTCHAR T
ENCODING 84
SWIDTH 586 0
DWIDTH 11 0
BBX 10 13 1 0
BITMAP
ffc0
0c00
0c00
0c00
0c00
0c00
0c00
0c00
0c00
0c00
0c00
0c00
0c00
ENDCHAR
STARTCHAR U
ENCODING 85
SWIDTH 586 0
DWIDTH 11 0
BBX 9 13 1 0
BITMAP
c180
c180
c180
c180
c180
c180
c180
c180
c180
c180
6300
7700
1c00
ENDCHAR
STARTCHAR V
ENCODING 86
SWIDTH 586 0
DWIDTH 11 0
BBX 10 13 1 0
BITMAP
c0c0
c0c0
c0c0
6080
6080
6180
3100
3100
3100
1a00
1a00
0c00
0c00
ENDCHAR
STARTCHAR W
ENCODING 87
SWIDTH 586 0
DWIDTH 11 0
BBX 11 13 0 0
BITMAP
c020
c020
c620
c660
6640
6740
6f40
6b40
7bc0
3b80
3180
3180
3180
ENDCHAR
STARTCHAR X
ENCODING 88
SWIDTH 586 0
DWIDTH 11 0
BBX 9 13 1 0
BITMAP
c180
c180
6180
6300
3200
1c00
1c00
1c00
2600
6300
c300
c180
c180
ENDCHAR
STARTCHAR Y
ENCODING 89
SWIDTH 586 0
DWIDTH 11 0
BBX 10 13 1 0
BITMAP
c0c0
c0c0
6180
3100
3300
1a00
0c00
0c00
0c00
0c00
0c00
0c00
0c00
ENDCHAR
STARTCHAR Z
ENCODING 90
SWIDTH 586 0
DWIDTH 11 0
BBX 9 13 1 0
BITMAP
ff80
ff80
0180
0300
0600
0c00
1800
3000
6000
c000
c000
ff80
ff80
ENDCHAR
STARTCHAR bracketleft
ENCODING 91
SWIDTH 586 0
DWIDTH 11 0
BBX 6 16 3 -2
BITMAP
fc
c0
c0
c0
c0
c0
c0
c0
c0
c0
c0
c0
c0
c0
c0
fc
ENDCHAR
STARTCHAR backslash
ENCODING 92
SWIDTH 586 0
DWIDTH 11 0
BBX 9 16 1 -2
BITMAP
8000
c000
4000
6000
2000
3000
1000
1800
0c00
0400
0600
0200
0300
0100
0180
0080
ENDCHAR
STARTCHAR bracketright
ENCODING 93
SWIDTH 586 0
DWIDTH 11 0
BBX 6 16 2 -2
BITMAP
fc
0c
0c
0c
0c
0c
0c
0c
0c
0c
0c
0c
0c
0c
0c
fc
ENDCHAR
STARTCHAR asciicircum
ENCODING 94
SWIDTH 586 0
DWIDTH 11 0
BBX 9 10 1 2
BITMAP
0800
1c00
1400
3600
2200
6300
6300
c180
c180
c180
ENDCHAR
STARTCHAR underscore
ENCODING 95
SWIDTH 586 0
DWIDTH 11 0
BBX 11 1 0 -1
BITMAP
ffe0
ENDCHAR
STARTCHAR grave
ENCODING 96
SWIDTH 586 0
DWIDTH 11 0
BBX 3 5 4 9
BITMAP
60
c0
e0
e0
e0
ENDCHAR
STARTCHAR a
ENCODING 97
SWIDTH 586 0
DWIDTH 11 0
BBX 9 10 1 0
BITMAP
3e00
6700
0300
0300
3f00
6300
c300
c300
e700
7980
ENDCHAR
STARTCHAR b
ENCODING 98
SWIDTH 586 0
DWIDTH 11 0
BBX 9 14 1 0
BITMAP
c000
c000
c000
c000
dc00
e700
c300
c180
c180
c180
c180
c300
e700
dc00
ENDCHAR
STARTCHAR c
ENCODING 99
SWIDTH 586 0
DWIDTH 11 0
BBX 9 10 1 0
BITMAP
1f00
7180
6000
c000
c000
c000
c000
6000
7180
1f00
ENDCHAR
STARTCHAR d
ENCODING 100
SWIDTH 586 0
DWIDTH 11 0
BBX 9 14 1 0
BITMAP
0180
0180
0180
0180
1d80
7380
6180
c180
c180
c180
c180
6180
7380
1d80
ENDCHAR
STARTCHAR e
ENCODING 101
SWIDTH 586 0
DWIDTH 11 0
BBX 9 10 1 0
BITMAP
3e00
6300
c180
c180
ff80
c000
c000
e000
7180
3f00
ENDCHAR
STARTCHAR f
ENCODING 102
SWIDTH 586 0
DWIDTH 11 0
BBX 9 14 1 0
BITMAP
0780
0c00
1800
1800
1800
ff80
1800
1800
1800
1800
1800
1800
1800
1800
ENDCHAR
STARTCHAR g
ENCODING 103
SWIDTH 586 0
DWIDTH 11 0
BBX 9 13 1 -3
BITMAP
1d80
7380
6180
c180
c180
c180
c180
6380
3d80
0180
0180
6300
3e00
ENDCHAR
STARTCHAR h
ENCODING 104
SWIDTH 586 0
DWIDTH 11 0
BBX 8 14 2 0
BITMAP
c0
c0
c0
c0
de
e7
c3
c3
c3
c3
c3
c3
c3
c3
ENDCHAR
STARTCHAR i
ENCODING 105
SWIDTH 586 0
DWIDTH 11 0
BBX 5 14 2 0
BITMAP
18
18
00
00
f8
18
18
18
18
18
18
18
18
18
ENDCHAR
STARTCHAR j
ENCODING 106
SWIDTH 586 0
DWIDTH 11 0
BBX 7 17 1 -3
BITMAP
06
06
00
00
3e
06
06
06
06
06
06
06
06
06
06
0c
f8
ENDCHAR
STARTCHAR k
ENCODING 107
SWIDTH 586 0
DWIDTH 11 0
BBX 9 14 2 0
BITMAP
c000
c000
c000
c000
c300
c600
cc00
d800
f000
d800
cc00
c600
c300
c180
ENDCHAR
STARTCHAR l
ENCODING 108
SWIDTH 586 0
DWIDTH 11 0
BBX 5 14 2 0
BITMAP
f8
18
18
18
18
18
18
18
18
18
18
18
18
18
ENDCHAR
STARTCHAR m
ENCODING 109
SWIDTH 586 0
DWIDTH 11 0
BBX 10 10 1 0
BITMAP
dd80
eec0
ccc0
ccc0
ccc0
ccc0
ccc0
ccc0
ccc0
ccc0
ENDCHAR
STARTCHAR n
ENCODING 110
SWIDTH 586 0
DWIDTH 11 0
BBX 8 10 2 0
BITMAP
de
e7
c3
c3
c3
c3
c3
c3
c3
c3
ENDCHAR
STARTCHAR o
ENCODING 111
SWIDTH 586 0
DWIDTH 11 0
BBX 9 10 1 0
BITMAP
1c00
7700
6300
c180
c180
c180
c180
6300
7700
1c00
ENDCHAR
STARTCHAR p
ENCODING 112
SWIDTH 586 0
DWIDTH 11 0
BBX 9 13 1 -3
BITMAP
dc00
e700
c300
c180
c180
c180
c180
c300
e700
dc00
c000
c000
c000
ENDCHAR
STARTCHAR q
ENCODING 113
SWIDTH 586 0
DWIDTH 11 0
BBX 9 13 1 -3
BITMAP
1d80
7380
6180
c180
c180
c180
c180
6180
7380
1d80
0180
0180
0180
ENDCHAR
STARTCHAR r
ENCODING 114
SWIDTH 586 0
DWIDTH 11 0
BBX 7 10 3 0
BITMAP
ce
de
e2
c2
c0
c0
c0
c0
c0
c0
ENDCHAR
STARTCHAR s
ENCODING 115
SWIDTH 586 0
DWIDTH 11 0
BBX 7 10 2 0
BITMAP
7c
c6
c0
e0
78
3c
0e
06
c6
7c
ENDCHAR
STARTCHAR t
ENCODING 116
SWIDTH 586 0
DWIDTH 11 0
BBX 9 12 1 0
BITMAP
1800
1800
1800
ff80
1800
1800
1800
1800
1800
1800
1800
0f80
ENDCHAR
STARTCHAR u
ENCODING 117
SWIDTH 586 0
DWIDTH 11 0
BBX 8 10 1 0
BITMAP
c3
c3
c3
c3
c3
c3
c3
c3
e7
7b
ENDCHAR
STARTCHAR v
ENCODING 118
SWIDTH 586 0
DWIDTH 11 0
BBX 8 10 2 0
BITMAP
c3
c3
c3
62
66
66
34
34
18
18
ENDCHAR
STARTCHAR w
ENCODING 119
SWIDTH 586 0
DWIDTH 11 0
BBX 10 10 1 0
BITMAP
c0c0
ccc0
ccc0
cc80
6e80
6e80
7780
3700
3300
3300
ENDCHAR
STARTCHAR x
ENCODING 120
SWIDTH 586 0
DWIDTH 11 0
BBX 8 10 2 0
BITMAP
c3
c3
66
34
38
1c
2c
66
c3
c3
ENDCHAR
STARTCHAR y
ENCODING 121
SWIDTH 586 0
DWIDTH 11 0
BBX 8 13 2 -3
BITMAP
c3
c3
c3
62
66
66
34
3c
18
18
10
30
30
ENDCHAR
STARTCHAR z
ENCODING 122
SWIDTH 586 0
DWIDTH 11 0
BBX 8 10 2 0
BITMAP
ff
03
07
0e
1c
38
70
e0
c0
ff
ENDCHAR
STARTCHAR braceleft
ENCODING 123
SWIDTH 586 0
DWIDTH 11 0
BBX 8 16 2 -2
BITMAP
1f
30
30
10
18
08
08
f0
08
08
18
10
30
30
30
1f
ENDCHAR
STARTCHAR bar
ENCODING 124
SWIDTH 586 0
DWIDTH 11 0
BBX 2 16 5 -2
BITMAP
c0
c0
c0
c0
c0
c0
c0
c0
c0
c0
c0
c0
c0
c0
c0
c0
ENDCHAR
STARTCHAR braceright
ENCODING 125
SWIDTH 586 0
DWIDTH 11 0
BBX 8 16 1 -2
BITMAP
f8
0c
0c
08
18
10
10
0f
10
10
18
08
0c
0c
0c
f8
ENDCHAR
STARTCHAR asciitilde
ENCODING 126
SWIDTH 586 0
DWIDTH 11 0
BBX 9 3 1 4
BITMAP
7080
9c80
8700
ENDCHAR
STARTCHAR vga127
ENCODING 127
SWIDTH 586 0
DWIDTH 11 0
BBX 8 16 2 -2
BITMAP
00
00
00
00
10
38
6c
c6
c6
c6
fe
00
00
00
00
00
ENDCHAR
STARTCHAR Ccedilla
ENCODING 128
SWIDTH 586 0
DWIDTH 11 0
BBX 9 16 1 -3
BITMAP
1f00
3180
6000
6000
c000
c000
c000
c000
c000
6000
6000
3180
1f00
0c00
0600
1c00
ENDCHAR
STARTCHAR udiaeresis
ENCODING 129
SWIDTH 586 0
DWIDTH 11 0
BBX 8 13 1 0
BITMAP
24
24
00
c3
c3
c3
c3
c3
c3
c3
c3
e7
7b
ENDCHAR
STARTCHAR eacute
ENCODING 130
SWIDTH 586 0
DWIDTH 11 0
BBX 9 13 1 0
BITMAP
0e00
1800
0000
3e00
6300
c180
c180
ff80
c000
c000
e000
7180
3f00
ENDCHAR
STARTCHAR acircumflex
ENCODING 131
SWIDTH 586 0
DWIDTH 11 0
BBX 9 13 1 0
BITMAP
0c00
1600
0000
3e00
6700
0300
0300
3f00
6300
c300
c300
e700
7980
ENDCHAR
STARTCHAR adiaeresis
ENCODING 132
SWIDTH 586 0
DWIDTH 11 0
BBX 9 13 1 0
BITMAP
1400
1400
0000
3e00
6700
0300
0300
3f00
6300
c300
c300
e700
7980
ENDCHAR
STARTCHAR agrave
ENCODING 133
SWIDTH 586 0
DWIDTH 11 0
BBX 9 13 1 0
BITMAP
3800
0c00
0000
3e00
6700
0300
0300
3f00
6300
c300
c300
e700
7980
ENDCHAR
STARTCHAR aring
ENCODING 134
SWIDTH 586 0
DWIDTH 11 0
BBX 9 13 1 0
BITMAP
0c00
1200
0c00
3e00
6700
0300
0300
3f00
6300
c300
c300
e700
7980
ENDCHAR
STARTCHAR ccedilla
ENCODING 135
SWIDTH 586 0
DWIDTH 11 0
BBX 9 13 1 -3
BITMAP
1f00
7180
6000
c000
c000
c000
c000
6000
7180
1f00
0c00
0600
1c00
ENDCHAR
STARTCHAR ecircumflex
ENCODING 136
SWIDTH 586 0
DWIDTH 11 0
BBX 9 13 1 0
BITMAP
0c00
1600
0000
3e00
6300
c180
c180
ff80
c000
c000
e000
7180
3f00
ENDCHAR
STARTCHAR ediaeresis
ENCODING 137
SWIDTH 586 0
DWIDTH 11 0
BBX 9 13 1 0
BITMAP
1400
1400
0000
3e00
6300
c180
c180
ff80
c000
c000
e000
7180
3f00
ENDCHAR
STARTCHAR egrave
ENCODING 138
SWIDTH 586 0
DWIDTH 11 0
BBX 9 13 1 0
BITMAP
3800
0c00
0000
3e00
6300
c180
c180
ff80
c000
c000
e000
7180
3f00
ENDCHAR
STARTCHAR idiaeresis
ENCODING 139
SWIDTH 586 0
DWIDTH 11 0
BBX 6 13 1 0
BITMAP
24
24
00
fc
0c
0c
0c
0c
0c
0c
0c
0c
0c
ENDCHAR
STARTCHAR icircumflex
ENCODING 140
SWIDTH 586 0
DWIDTH 11 0
BBX 6 13 2 0
BITMAP
18
2c
00
f8
18
18
18
18
18
18
18
18
18
ENDCHAR
STARTCHAR igrave
ENCODING 141
SWIDTH 586 0
DWIDTH 11 0
BBX 5 13 2 0
BITMAP
70
18
00
f8
18
18
18
18
18
18
18
18
18
ENDCHAR
STARTCHAR Adiaeresis
ENCODING 142
SWIDTH 586 0
DWIDTH 11 0
BBX 10 16 1 0
BITMAP
1200
1200
0000
0c00
0c00
1e00
1600
1300
3300
2300
2180
7f80
4180
c0c0
c0c0
c0c0
ENDCHAR
STARTCHAR Aring
ENCODING 143
SWIDTH 586 0
DWIDTH 11 0
BBX 10 15 1 0
BITMAP
0c00
1200
0c00
0c00
1e00
1600
1300
3300
2300
2180
7f80
4180
c0c0
c0c0
c0c0
ENDCHAR
STARTCHAR Eacute
ENCODING 144
SWIDTH 586 0
DWIDTH 11 0
BBX 8 16 2 0
BITMAP
1c
30
00
ff
c0
c0
c0
c0
c0
fe
c0
c0
c0
c0
c0
ff
ENDCHAR
STARTCHAR ae
ENCODING 145
SWIDTH 586 0
DWIDTH 11 0
BBX 10 10 1 0
BITMAP
7b80
ccc0
0cc0
0cc0
7fc0
cc00
cc00
cc00
dec0
6380
ENDCHAR
STARTCHAR AE
ENCODING 146
SWIDTH 586 0
DWIDTH 11 0
BBX 10 13 1 0
BITMAP
07c0
0e00
0e00
1600
1600
2600
27c0
6600
7e00
4600
c600
c600
c7c0
ENDCHAR
STARTCHAR ocircumflex
ENCODING 147
SWIDTH 586 0
DWIDTH 11 0
BBX 9 13 1 0
BITMAP
0c00
1600
0000
1c00
7700
6300
c180
c180
c180
c180
6300
7700
1c00
ENDCHAR
STARTCHAR odiaeresis
ENCODING 148
SWIDTH 586 0
DWIDTH 11 0
BBX 9 13 1 0
BITMAP
1400
1400
0000
1c00
7700
6300
c180
c180
c180
c180
6300
7700
1c00
ENDCHAR
STARTCHAR ograve
ENCODING 149
SWIDTH 586 0
DWIDTH 11 0
BBX 9 13 1 0
BITMAP
3800
0c00
0000
1c00
7700
6300
c180
c180
c180
c180
6300
7700
1c00
ENDCHAR
STARTCHAR ucircumflex
ENCODING 150
SWIDTH 586 0
DWIDTH 11 0
BBX 8 13 1 0
BITMAP
18
2c
00
c3
c3
c3
c3
c3
c3
c3
c3
e7
7b
ENDCHAR
STARTCHAR ugrave
ENCODING 151
SWIDTH 586 0
DWIDTH 11 0
BBX 8 13 1 0
BITMAP
38
0c
00
c3
c3
c3
c3
c3
c3
c3
c3
e7
7b
ENDCHAR
STARTCHAR ydiaeresis
ENCODING 152
SWIDTH 586 0
DWIDTH 11 0
BBX 8 16 2 -3
BITMAP
24
24
00
c3
c3
c3
62
66
66
34
3c
18
18
10
30
30
ENDCHAR
STARTCHAR Odiaeresis
ENCODING 153
SWIDTH 586 0
DWIDTH 11 0
BBX 10 16 1 0
BITMAP
1200
1200
0000
1e00
3300
6180
6180
c0c0
c0c0
c0c0
c0c0
c0c0
6180
6180
3300
1e00
ENDCHAR
STARTCHAR Udiaeresis
ENCODING 154
SWIDTH 586 0
DWIDTH 11 0
BBX 9 16 1 0
BITMAP
2200
2200
0000
c180
c180
c180
c180
c180
c180
c180
c180
c180
c180
6300
7700
1c00
ENDCHAR
STARTCHAR cent
ENCODING 155
SWIDTH 586 0
DWIDTH 11 0
BBX 8 14 2 -1
BITMAP
08
08
1e
6b
68
c8
c8
c8
c8
c8
6b
3e
08
08
ENDCHAR
STARTCHAR sterling
ENCODING 156
SWIDTH 586 0
DWIDTH 11 0
BBX 8 13 2 0
BITMAP
0e
13
30
30
30
30
fc
30
30
20
40
ff
ff
ENDCHAR
STARTCHAR yen
ENCODING 157
SWIDTH 586 0
DWIDTH 11 0
BBX 10 13 1 0
BITMAP
c0c0
c0c0
6180
3100
3300
1a00
0c00
3f00
0c00
3f00
0c00
0c00
0c00
ENDCHAR
STARTCHAR vga158
ENCODING 158
SWIDTH 586 0
DWIDTH 11 0
BBX 8 16 2 -2
BITMAP
00
f8
cc
cc
f8
c4
cc
de
cc
cc
cc
c6
00
00
00
00
ENDCHAR
STARTCHAR vga159
ENCODING 159
SWIDTH 586 0
DWIDTH 11 0
BBX 8 16 2 -2
BITMAP
00
0e
1b
18
18
18
7e
18
18
18
18
18
d8
70
00
00
ENDCHAR
STARTCHAR aacute
ENCODING 160
SWIDTH 586 0
DWIDTH 11 0
BBX 9 13 1 0
BITMAP
0e00
1800
0000
3e00
6700
0300
0300
3f00
6300
c300
c300
e700
7980
ENDCHAR
STARTCHAR iacute
ENCODING 161
SWIDTH 586 0
DWIDTH 11 0
BBX 6 13 2 0
BITMAP
1c
30
00
f8
18
18
18
18
18
18
18
18
18
ENDCHAR
STARTCHAR oacute
ENCODING 162
SWIDTH 586 0
DWIDTH 11 0
BBX 9 13 1 0
BITMAP
0e00
1800
0000
1c00
7700
6300
c180
c180
c180
c180
6300
7700
1c00
ENDCHAR
STARTCHAR uacute
ENCODING 163
SWIDTH 586 0
DWIDTH 11 0
BBX 8 13 1 0
BITMAP
0e
18
00
c3
c3
c3
c3
c3
c3
c3
c3
e7
7b
ENDCHAR
STARTCHAR vga164
ENCODING 164
SWIDTH 586 0
DWIDTH 11 0
BBX 8 16 2 -2
BITMAP
00
00
76
dc
00
dc
66
66
66
66
66
66
00
00
00
00
ENDCHAR
STARTCHAR vga165
ENCODING 165
SWIDTH 586 0
DWIDTH 11 0
BBX 8 16 2 -2
BITMAP
76
dc
00
c6
e6
f6
fe
de
ce
c6
c6
c6
00
00
00
00
ENDCHAR
STARTCHAR vga166
ENCODING 166
SWIDTH 586 0
DWIDTH 11 0
BBX 8 16 2 -2
BITMAP
00
3c
6c
6c
3e
00
7e
00
00
00
00
00
00
00
00
00
ENDCHAR
STARTCHAR vga167
ENCODING 167
SWIDTH 586 0
DWIDTH 11 0
BBX 8 16 2 -2
BITMAP
00
38
6c
6c
38
00
7c
00
00
00
00
00
00
00
00
00
ENDCHAR
STARTCHAR questiondown
ENCODING 168
SWIDTH 586 0
DWIDTH 11 0
BBX 8 13 2 -3
BITMAP
0c
0c
00
00
0c
0c
0c
18
60
c0
c0
e3
7e
ENDCHAR
STARTCHAR hook
ENCODING 169
SWIDTH 586 0
DWIDTH 11 0
BBX 9 4 1 3
BITMAP
ff80
8000
8000
8000
ENDCHAR
STARTCHAR notsign
ENCODING 170
SWIDTH 586 0
DWIDTH 11 0
BBX 9 4 1 3
BITMAP
ff80
0080
0080
0080
ENDCHAR
STARTCHAR onehalf
ENCODING 171
SWIDTH 586 0
DWIDTH 11 0
BBX 11 13 0 0
BITMAP
e100
6100
6200
6200
6400
6400
69c0
0a60
0860
10c0
1100
23e0
23e0
ENDCHAR
STARTCHAR onequarter
ENCODING 172
SWIDTH 586 0
DWIDTH 11 0
BBX 11 13 0 0
BITMAP
e100
6100
6200
6200
6400
6400
68c0
11c0
12c0
24c0
27e0
40c0
40c0
ENDCHAR
STARTCHAR exclamdown
ENCODING 173
SWIDTH 586 0
DWIDTH 11 0
BBX 2 13 5 -3
BITMAP
c0
c0
00
00
80
c0
c0
c0
c0
c0
c0
c0
c0
ENDCHAR
STARTCHAR guillemotleft
ENCODING 174
SWIDTH 586 0
DWIDTH 11 0
BBX 9 8 1 1
BITMAP
1980
3300
6600
cc00
cc00
6600
3300
1980
ENDCHAR
STARTCHAR guillemotright
ENCODING 175
SWIDTH 586 0
DWIDTH 11 0
BBX 9 8 1 1
BITMAP
cc00
6600
3300
1980
1980
3300
6600
cc00
ENDCHAR
STARTCHAR raster1
ENCODING 176
SWIDTH 586 0
DWIDTH 11 0
BBX 11 19 0 -3
BITMAP
8880
0000
2220
0000
8880
0000
2220
0000
8880
0000
2220
0000
8880
0000
2220
0000
8880
0000
2220
ENDCHAR
STARTCHAR raster2
ENCODING 177
SWIDTH 586 0
DWIDTH 11 0
BBX 11 19 0 -3
BITMAP
aaa0
5550
aaa0
5550
aaa0
5550
aaa0
5550
aaa0
5550
aaa0
5550
aaa0
5550
aaa0
5550
aaa0
5550
aaa0
ENDCHAR
STARTCHAR raster3
ENCODING 178
SWIDTH 586 0
DWIDTH 11 0
BBX 11 19 0 -3
BITMAP
7770
ffe0
ddd0
ffe0
7770
ffe0
ddd0
ffe0
7770
ffe0
ddd0
ffe0
7770
ffe0
ddd0
ffe0
7770
ffe0
ddd0
ENDCHAR
STARTCHAR udline
ENCODING 179
SWIDTH 586 0
DWIDTH 11 0
BBX 11 19 0 -3
BITMAP
0400
0400
0400
0400
0400
0400
0400
0400
0400
0400
0400
0400
0400
0400
0400
0400
0400
0400
0400
ENDCHAR
STARTCHAR udlline
ENCODING 180
SWIDTH 586 0
DWIDTH 11 0
BBX 11 19 0 -3
BITMAP
0400
0400
0400
0400
0400
0400
0400
0400
0400
0400
fc00
0400
0400
0400
0400
0400
0400
0400
0400
ENDCHAR
STARTCHAR udLline
ENCODING 181
SWIDTH 586 0
DWIDTH 11 0
BBX 11 19 0 -3
BITMAP
0400
0400
0400
0400
0400
0400
0400
0400
0400
fc00
0400
fc00
0400
0400
0400
0400
0400
0400
0400
ENDCHAR
STARTCHAR UDlline
ENCODING 182
SWIDTH 586 0
DWIDTH 11 0
BBX 11 19 0 -3
BITMAP
0a00
0a00
0a00
0a00
0a00
0a00
0a00
0a00
0a00
0a00
fa00
0a00
0a00
0a00
0a00
0a00
0a00
0a00
0a00
ENDCHAR
STARTCHAR Dlline
ENCODING 183
SWIDTH 586 0
DWIDTH 11 0
BBX 11 19 0 -3
BITMAP
0000
0000
0000
0000
0000
0000
0000
0000
0000
0000
fe00
0a00
0a00
0a00
0a00
0a00
0a00
0a00
0a00
ENDCHAR
STARTCHAR dLline
ENCODING 184
SWIDTH 586 0
DWIDTH 11 0
BBX 11 19 0 -3
BITMAP
0000
0000
0000
0000
0000
0000
0000
0000
0000
fc00
0400
fc00
0400
0400
0400
0400
0400
0400
0400
ENDCHAR
STARTCHAR UDLline
ENCODING 185
SWIDTH 586 0
DWIDTH 11 0
BBX 11 19 0 -3
BITMAP
0a00
0a00
0a00
0a00
0a00
0a00
0a00
0a00
0a00
fa00
0a00
fa00
0a00
0a00
0a00
0a00
0a00
0a00
0a00
ENDCHAR
STARTCHAR UDline
ENCODING 186
SWIDTH 586 0
DWIDTH 11 0
BBX 11 19 0 -3
BITMAP
0a00
0a00
0a00
0a00
0a00
0a00
0a00
0a00
0a00
0a00
0a00
0a00
0a00
0a00
0a00
0a00
0a00
0a00
0a00
ENDCHAR
STARTCHAR DLline
ENCODING 187
SWIDTH 586 0
DWIDTH 11 0
BBX 11 19 0 -3
BITMAP
0000
0000
0000
0000
0000
0000
0000
0000
0000
fe00
0200
fa00
0a00
0a00
0a00
0a00
0a00
0a00
0a00
ENDCHAR
STARTCHAR ULline
ENCODING 188
SWIDTH 586 0
DWIDTH 11 0
BBX 11 19 0 -3
BITMAP
0a00
0a00
0a00
0a00
0a00
0a00
0a00
0a00
0a00
fa00
0200
fe00
0000
0000
0000
0000
0000
0000
0000
ENDCHAR
STARTCHAR Ulline
ENCODING 189
SWIDTH 586 0
DWIDTH 11 0
BBX 11 19 0 -3
BITMAP
0a00
0a00
0a00
0a00
0a00
0a00
0a00
0a00
0a00
0a00
fe00
0000
0000
0000
0000
0000
0000
0000
0000
ENDCHAR
STARTCHAR uLline
ENCODING 190
SWIDTH 586 0
DWIDTH 11 0
BBX 11 19 0 -3
BITMAP
0400
0400
0400
0400
0400
0400
0400
0400
0400
fc00
0400
fc00
0000
0000
0000
0000
0000
0000
0000
ENDCHAR
STARTCHAR dlline
ENCODING 191
SWIDTH 586 0
DWIDTH 11 0
BBX 11 19 0 -3
BITMAP
0000
0000
0000
0000
0000
0000
0000
0000
0000
0000
fc00
0400
0400
0400
0400
0400
0400
0400
0400
ENDCHAR
STARTCHAR urline
ENCODING 192
SWIDTH 586 0
DWIDTH 11 0
BBX 11 19 0 -3
BITMAP
0400
0400
0400
0400
0400
0400
0400
0400
0400
0400
07e0
0000
0000
0000
0000
0000
0000
0000
0000
ENDCHAR
STARTCHAR urlline
ENCODING 193
SWIDTH 586 0
DWIDTH 11 0
BBX 11 19 0 -3
BITMAP
0400
0400
0400
0400
0400
0400
0400
0400
0400
0400
ffe0
0000
0000
0000
0000
0000
0000
0000
0000
ENDCHAR
STARTCHAR rdlline
ENCODING 194
SWIDTH 586 0
DWIDTH 11 0
BBX 11 19 0 -3
BITMAP
0000
0000
0000
0000
0000
0000
0000
0000
0000
0000
ffe0
0400
0400
0400
0400
0400
0400
0400
0400
ENDCHAR
STARTCHAR urdline
ENCODING 195
SWIDTH 586 0
DWIDTH 11 0
BBX 11 19 0 -3
BITMAP
0400
0400
0400
0400
0400
0400
0400
0400
0400
0400
07e0
0400
0400
0400
0400
0400
0400
0400
0400
ENDCHAR
STARTCHAR rlline
ENCODING 196
SWIDTH 586 0
DWIDTH 11 0
BBX 11 19 0 -3
BITMAP
0000
0000
0000
0000
0000
0000
0000
0000
0000
0000
ffe0
0000
0000
0000
0000
0000
0000
0000
0000
ENDCHAR
STARTCHAR urdlline
ENCODING 197
SWIDTH 586 0
DWIDTH 11 0
BBX 11 19 0 -3
BITMAP
0400
0400
0400
0400
0400
0400
0400
0400
0400
0400
ffe0
0400
0400
0400
0400
0400
0400
0400
0400
ENDCHAR
STARTCHAR uRdline
ENCODING 198
SWIDTH 586 0
DWIDTH 11 0
BBX 11 19 0 -3
BITMAP
0400
0400
0400
0400
0400
0400
0400
0400
0400
07e0
0400
07e0
0400
0400
0400
0400
0400
0400
0400
ENDCHAR
STARTCHAR UrDline
ENCODING 199
SWIDTH 586 0
DWIDTH 11 0
BBX 11 19 0 -3
BITMAP
0a00
0a00
0a00
0a00
0a00
0a00
0a00
0a00
0a00
0a00
0be0
0a00
0a00
0a00
0a00
0a00
0a00
0a00
0a00
ENDCHAR
STARTCHAR URline
ENCODING 200
SWIDTH 586 0
DWIDTH 11 0
BBX 11 19 0 -3
BITMAP
0a00
0a00
0a00
0a00
0a00
0a00
0a00
0a00
0a00
0be0
0800
0fe0
0000
0000
0000
0000
0000
0000
0000
ENDCHAR
STARTCHAR RDline
ENCODING 201
SWIDTH 586 0
DWIDTH 11 0
BBX 11 19 0 -3
BITMAP
0000
0000
0000
0000
0000
0000
0000
0000
0000
0fe0
0800
0be0
0a00
0a00
0a00
0a00
0a00
0a00
0a00
ENDCHAR
STARTCHAR URLline
ENCODING 202
SWIDTH 586 0
DWIDTH 11 0
BBX 11 19 0 -3
BITMAP
0a00
0a00
0a00
0a00
0a00
0a00
0a00
0a00
0a00
fbe0
0000
ffe0
0000
0000
0000
0000
0000
0000
0000
ENDCHAR
STARTCHAR RDLline
ENCODING 203
SWIDTH 586 0
DWIDTH 11 0
BBX 11 19 0 -3
BITMAP
0000
0000
0000
0000
0000
0000
0000
0000
0000
ffe0
0000
fbe0
0a00
0a00
0a00
0a00
0a00
0a00
0a00
ENDCHAR
STARTCHAR URDline
ENCODING 204
SWIDTH 586 0
DWIDTH 11 0
BBX 11 19 0 -3
BITMAP
0a00
0a00
0a00
0a00
0a00
0a00
0a00
0a00
0a00
0be0
0800
0be0
0a00
0a00
0a00
0a00
0a00
0a00
0a00
ENDCHAR
STARTCHAR RLline
ENCODING 205
SWIDTH 586 0
DWIDTH 11 0
BBX 11 19 0 -3
BITMAP
0000
0000
0000
0000
0000
0000
0000
0000
0000
ffe0
0000
ffe0
0000
0000
0000
0000
0000
0000
0000
ENDCHAR
STARTCHAR URDLline
ENCODING 206
SWIDTH 586 0
DWIDTH 11 0
BBX 11 19 0 -3
BITMAP
0a00
0a00
0a00
0a00
0a00
0a00
0a00
0a00
0a00
fbe0
0000
fbe0
0a00
0a00
0a00
0a00
0a00
0a00
0a00
ENDCHAR
STARTCHAR uRLline
ENCODING 207
SWIDTH 586 0
DWIDTH 11 0
BBX 11 19 0 -3
BITMAP
0400
0400
0400
0400
0400
0400
0400
0400
0400
ffe0
0000
ffe0
0000
0000
0000
0000
0000
0000
0000
ENDCHAR
STARTCHAR Urlline
ENCODING 208
SWIDTH 586 0
DWIDTH 11 0
BBX 11 19 0 -3
BITMAP
0a00
0a00
0a00
0a00
0a00
0a00
0a00
0a00
0a00
0a00
ffe0
0000
0000
0000
0000
0000
0000
0000
0000
ENDCHAR
STARTCHAR RdLline
ENCODING 209
SWIDTH 586 0
DWIDTH 11 0
BBX 11 19 0 -3
BITMAP
0000
0000
0000
0000
0000
0000
0000
0000
0000
ffe0
0000
ffe0
0400
0400
0400
0400
0400
0400
0400
ENDCHAR
STARTCHAR rDlline
ENCODING 210
SWIDTH 586 0
DWIDTH 11 0
BBX 11 19 0 -3
BITMAP
0000
0000
0000
0000
0000
0000
0000
0000
0000
0000
ffe0
0a00
0a00
0a00
0a00
0a00
0a00
0a00
0a00
ENDCHAR
STARTCHAR Urline
ENCODING 211
SWIDTH 586 0
DWIDTH 11 0
BBX 11 19 0 -3
BITMAP
0a00
0a00
0a00
0a00
0a00
0a00
0a00
0a00
0a00
0a00
0fe0
0000
0000
0000
0000
0000
0000
0000
0000
ENDCHAR
STARTCHAR uRline
ENCODING 212
SWIDTH 586 0
DWIDTH 11 0
BBX 11 19 0 -3
BITMAP
0400
0400
0400
0400
0400
0400
0400
0400
0400
07e0
0400
07e0
0000
0000
0000
0000
0000
0000
0000
ENDCHAR
STARTCHAR Rdline
ENCODING 213
SWIDTH 586 0
DWIDTH 11 0
BBX 11 19 0 -3
BITMAP
0000
0000
0000
0000
0000
0000
0000
0000
0000
07e0
0400
07e0
0400
0400
0400
0400
0400
0400
0400
ENDCHAR
STARTCHAR rDline
ENCODING 214
SWIDTH 586 0
DWIDTH 11 0
BBX 11 19 0 -3
BITMAP
0000
0000
0000
0000
0000
0000
0000
0000
0000
0000
0fe0
0a00
0a00
0a00
0a00
0a00
0a00
0a00
0a00
ENDCHAR
STARTCHAR UrDlline
ENCODING 215
SWIDTH 586 0
DWIDTH 11 0
BBX 11 19 0 -3
BITMAP
0a00
0a00
0a00
0a00
0a00
0a00
0a00
0a00
0a00
0a00
ffe0
0a00
0a00
0a00
0a00
0a00
0a00
0a00
0a00
ENDCHAR
STARTCHAR uRdLline
ENCODING 216
SWIDTH 586 0
DWIDTH 11 0
BBX 11 19 0 -3
BITMAP
0400
0400
0400
0400
0400
0400
0400
0400
0400
ffe0
0400
ffe0
0400
0400
0400
0400
0400
0400
0400
ENDCHAR
STARTCHAR urline
ENCODING 217
SWIDTH 586 0
DWIDTH 11 0
BBX 11 19 0 -3
BITMAP
0400
0400
0400
0400
0400
0400
0400
0400
0400
0400
fc00
0000
0000
0000
0000
0000
0000
0000
0000
ENDCHAR
STARTCHAR rdline
ENCODING 218
SWIDTH 586 0
DWIDTH 11 0
BBX 11 19 0 -3
BITMAP
0000
0000
0000
0000
0000
0000
0000
0000
0000
0000
07e0
0400
0400
0400
0400
0400
0400
0400
0400
ENDCHAR
STARTCHAR fullblock
ENCODING 219
SWIDTH 586 0
DWIDTH 11 0
BBX 11 19 0 -3
BITMAP
ffe0
ffe0
ffe0
ffe0
ffe0
ffe0
ffe0
ffe0
ffe0
ffe0
ffe0
ffe0
ffe0
ffe0
ffe0
ffe0
ffe0
ffe0
ffe0
ENDCHAR
STARTCHAR bottomblock
ENCODING 220
SWIDTH 586 0
DWIDTH 11 0
BBX 11 19 0 -3
BITMAP
0000
0000
0000
0000
0000
0000
0000
0000
0000
ffe0
ffe0
ffe0
ffe0
ffe0
ffe0
ffe0
ffe0
ffe0
ffe0
ENDCHAR
STARTCHAR leftblock
ENCODING 221
SWIDTH 586 0
DWIDTH 11 0
BBX 11 19 0 -3
BITMAP
fc00
fc00
fc00
fc00
fc00
fc00
fc00
fc00
fc00
fc00
fc00
fc00
fc00
fc00
fc00
fc00
fc00
fc00
fc00
ENDCHAR
STARTCHAR rightblock
ENCODING 222
SWIDTH 586 0
DWIDTH 11 0
BBX 11 19 0 -3
BITMAP
03e0
03e0
03e0
03e0
03e0
03e0
03e0
03e0
03e0
03e0
03e0
03e0
03e0
03e0
03e0
03e0
03e0
03e0
03e0
ENDCHAR
STARTCHAR topblock
ENCODING 223
SWIDTH 586 0
DWIDTH 11 0
BBX 11 19 0 -3
BITMAP
ffe0
ffe0
ffe0
ffe0
ffe0
ffe0
ffe0
ffe0
ffe0
ffe0
0000
0000
0000
0000
0000
0000
0000
0000
0000
ENDCHAR
STARTCHAR vga224
ENCODING 224
SWIDTH 586 0
DWIDTH 11 0
BBX 8 16 2 -2
BITMAP
00
00
00
00
00
76
dc
d8
d8
d8
dc
76
00
00
00
00
ENDCHAR
STARTCHAR vga225
ENCODING 225
SWIDTH 586 0
DWIDTH 11 0
BBX 8 16 2 -2
BITMAP
00
00
78
cc
cc
cc
d8
cc
c6
c6
c6
cc
00
00
00
00
ENDCHAR
STARTCHAR vga226
ENCODING 226
SWIDTH 586 0
DWIDTH 11 0
BBX 8 16 2 -2
BITMAP
00
00
fe
c6
c6
c0
c0
c0
c0
c0
c0
c0
00
00
00
00
ENDCHAR
STARTCHAR vga227
ENCODING 227
SWIDTH 586 0
DWIDTH 11 0
BBX 8 16 2 -2
BITMAP
00
00
00
00
fe
6c
6c
6c
6c
6c
6c
6c
00
00
00
00
ENDCHAR
STARTCHAR vga228
ENCODING 228
SWIDTH 586 0
DWIDTH 11 0
BBX 8 16 2 -2
BITMAP
00
00
00
fe
c6
60
30
18
30
60
c6
fe
00
00
00
00
ENDCHAR
STARTCHAR vga229
ENCODING 229
SWIDTH 586 0
DWIDTH 11 0
BBX 8 16 2 -2
BITMAP
00
00
00
00
00
7e
d8
d8
d8
d8
d8
70
00
00
00
00
ENDCHAR
STARTCHAR vga230
ENCODING 230
SWIDTH 586 0
DWIDTH 11 0
BBX 8 16 2 -2
BITMAP
00
00
00
00
66
66
66
66
66
7c
60
60
c0
00
00
00
ENDCHAR
STARTCHAR vga231
ENCODING 231
SWIDTH 586 0
DWIDTH 11 0
BBX 8 16 2 -2
BITMAP
00
00
00
00
76
dc
18
18
18
18
18
18
00
00
00
00
ENDCHAR
STARTCHAR vga232
ENCODING 232
SWIDTH 586 0
DWIDTH 11 0
BBX 8 16 2 -2
BITMAP
00
00
00
7e
18
3c
66
66
66
3c
18
7e
00
00
00
00
ENDCHAR
STARTCHAR vga233
ENCODING 233
SWIDTH 586 0
DWIDTH 11 0
BBX 8 16 2 -2
BITMAP
00
00
00
38
6c
c6
c6
fe
c6
c6
6c
38
00
00
00
00
ENDCHAR
STARTCHAR vga234
ENCODING 234
SWIDTH 586 0
DWIDTH 11 0
BBX 8 16 2 -2
BITMAP
00
00
38
6c
c6
c6
c6
6c
6c
6c
6c
ee
00
00
00
00
ENDCHAR
STARTCHAR vga235
ENCODING 235
SWIDTH 586 0
DWIDTH 11 0
BBX 8 16 2 -2
BITMAP
00
00
1e
30
18
0c
3e
66
66
66
66
3c
00
00
00
00
ENDCHAR
STARTCHAR vga236
ENCODING 236
SWIDTH 586 0
DWIDTH 11 0
BBX 8 16 2 -2
BITMAP
00
00
00
00
00
7e
db
db
db
7e
00
00
00
00
00
00
ENDCHAR
STARTCHAR vga237
ENCODING 237
SWIDTH 586 0
DWIDTH 11 0
BBX 8 16 2 -2
BITMAP
00
00
00
03
06
7e
db
db
f3
7e
60
c0
00
00
00
00
ENDCHAR
STARTCHAR vga238
ENCODING 238
SWIDTH 586 0
DWIDTH 11 0
BBX 8 16 2 -2
BITMAP
00
00
1c
30
60
60
7c
60
60
60
30
1c
00
00
00
00
ENDCHAR
STARTCHAR vga239
ENCODING 239
SWIDTH 586 0
DWIDTH 11 0
BBX 8 16 2 -2
BITMAP
00
00
00
7c
c6
c6
c6
c6
c6
c6
c6
c6
00
00
00
00
ENDCHAR
STARTCHAR isequal
ENCODING 240
SWIDTH 586 0
DWIDTH 11 0
BBX 11 19 0 -3
BITMAP
0000
0000
0000
0000
0000
0000
7fc0
0000
0000
7fc0
0000
0000
7fc0
0000
0000
0000
0000
0000
0000
ENDCHAR
STARTCHAR plusminus
ENCODING 241
SWIDTH 586 0
DWIDTH 11 0
BBX 9 8 1 2
BITMAP
0800
0800
0800
ff80
0800
0800
0000
ff80
ENDCHAR
STARTCHAR vga242
ENCODING 242
SWIDTH 586 0
DWIDTH 11 0
BBX 8 16 2 -2
BITMAP
00
00
00
30
18
0c
06
0c
18
30
00
7e
00
00
00
00
ENDCHAR
STARTCHAR vga243
ENCODING 243
SWIDTH 586 0
DWIDTH 11 0
BBX 8 16 2 -2
BITMAP
00
00
00
0c
18
30
60
30
18
0c
00
7e
00
00
00
00
ENDCHAR
STARTCHAR vga244
ENCODING 244
SWIDTH 586 0
DWIDTH 11 0
BBX 8 16 2 -2
BITMAP
00
00
0e
1b
1b
18
18
18
18
18
18
18
18
18
18
18
ENDCHAR
STARTCHAR vga245
ENCODING 245
SWIDTH 586 0
DWIDTH 11 0
BBX 8 16 2 -2
BITMAP
18
18
18
18
18
18
18
18
d8
d8
d8
70
00
00
00
00
ENDCHAR
STARTCHAR division
ENCODING 246
SWIDTH 586 0
DWIDTH 11 0
BBX 9 9 1 1
BITMAP
0800
0800
0000
0000
ff80
0000
0000
0800
0800
ENDCHAR
STARTCHAR vga247
ENCODING 247
SWIDTH 586 0
DWIDTH 11 0
BBX 8 16 2 -2
BITMAP
00
00
00
00
00
76
dc
00
76
dc
00
00
00
00
00
00
ENDCHAR
STARTCHAR degree
ENCODING 248
SWIDTH 586 0
DWIDTH 11 0
BBX 5 5 3 9
BITMAP
70
88
88
88
70
ENDCHAR
STARTCHAR smalldot
ENCODING 249
SWIDTH 586 0
DWIDTH 11 0
BBX 11 19 0 -3
BITMAP
0000
0000
0000
0000
0000
0000
0000
0000
0e00
0e00
0e00
0000
0000
0000
0000
0000
0000
0000
0000
ENDCHAR
STARTCHAR smallerdot
ENCODING 250
SWIDTH 586 0
DWIDTH 11 0
BBX 11 19 0 -3
BITMAP
0000
0000
0000
0000
0000
0000
0000
0000
0000
0800
0000
0000
0000
0000
0000
0000
0000
0000
0000
ENDCHAR
STARTCHAR vga251
ENCODING 251
SWIDTH 586 0
DWIDTH 11 0
BBX 8 16 2 -2
BITMAP
00
0f
0c
0c
0c
0c
0c
ec
6c
6c
3c
1c
00
00
00
00
ENDCHAR
STARTCHAR vga252
ENCODING 252
SWIDTH 586 0
DWIDTH 11 0
BBX 8 16 2 -2
BITMAP
00
d8
6c
6c
6c
6c
6c
00
00
00
00
00
00
00
00
00
ENDCHAR
STARTCHAR twosuperior
ENCODING 253
SWIDTH 586 0
DWIDTH 11 0
BBX 7 8 2 5
BITMAP
7c
c6
06
1c
70
c0
fe
fe
ENDCHAR
STARTCHAR bullet
ENCODING 254
SWIDTH 586 0
DWIDTH 11 0
BBX 11 19 0 -3
BITMAP
0000
0000
0000
0000
0000
0000
3f80
3f80
3f80
3f80
3f80
3f80
3f80
0000
0000
0000
0000
0000
0000
ENDCHAR
STARTCHAR space255
ENCODING 255
SWIDTH 586 0
DWIDTH 11 0
BBX 0 0 0 0
BITMAP
ENDCHAR
ENDFONT
